<?xml version="1.0" encoding="UTF-8" standalone="no"?>
<!-- Created with Inkscape (http://www.inkscape.org/) -->

<svg
   xmlns:dc="http://purl.org/dc/elements/1.1/"
   xmlns:cc="http://creativecommons.org/ns#"
   xmlns:rdf="http://www.w3.org/1999/02/22-rdf-syntax-ns#"
   xmlns:svg="http://www.w3.org/2000/svg"
   xmlns="http://www.w3.org/2000/svg"
   xmlns:sodipodi="http://sodipodi.sourceforge.net/DTD/sodipodi-0.dtd"
   xmlns:inkscape="http://www.inkscape.org/namespaces/inkscape"
   width="210mm"
   height="297mm"
   viewBox="0 0 210 297"
   version="1.1"
   id="svg76"
   inkscape:version="0.92.3 (2405546, 2018-03-11)"
   sodipodi:docname="fist.svg">
  <defs
     id="defs70" />
  <sodipodi:namedview
     id="base"
     pagecolor="#ffffff"
     bordercolor="#666666"
     borderopacity="1.0"
     inkscape:pageopacity="0.0"
     inkscape:pageshadow="2"
     inkscape:zoom="0.35"
     inkscape:cx="-141.42857"
     inkscape:cy="560"
     inkscape:document-units="mm"
     inkscape:current-layer="layer1"
     showgrid="false"
     inkscape:window-width="1920"
     inkscape:window-height="1172"
     inkscape:window-x="1920"
     inkscape:window-y="0"
     inkscape:window-maximized="1" />
  <metadata
     id="metadata73">
    <rdf:RDF>
      <cc:Work
         rdf:about="">
        <dc:format>image/svg+xml</dc:format>
        <dc:type
           rdf:resource="http://purl.org/dc/dcmitype/StillImage" />
        <dc:title></dc:title>
      </cc:Work>
    </rdf:RDF>
  </metadata>
  <g
     inkscape:label="Layer 1"
     inkscape:groupmode="layer"
     id="layer1">
    <g
       transform="matrix(0.27753113,0,0,0.28021393,-88.19925,-43.197893)"
       id="g14">
      <g
         id="g12">
        <rect
           style="clip-rule:evenodd;fill:#333333;fill-rule:evenodd"
           x="321"
           y="156"
           width="759"
           height="1064"
           id="rect8" />
        <rect
           style="clip-rule:evenodd;fill:#78bc25;fill-rule:evenodd"
           x="340"
           y="174"
           width="722"
           height="1027"
           id="rect10" />
      </g>
    </g>
    <g
       transform="matrix(0.27753113,0,0,0.28021393,-88.19925,-43.197893)"
       id="g20">
      <path
         style="clip-rule:evenodd;fill:#ffff99;fill-rule:evenodd"
         inkscape:connector-curvature="0"
         d="m 450.6,174 h 101.3 l 52.7,120.7 c -16.3,7.1 -31.7,15.9 -45.8,26.4 z m 212.1,0 h 75.7 L 727,276.1 c -8.7,-0.9 -17.5,-1.3 -26.5,-1.3 -9,0 -17.8,0.3 -26.5,1.2 z m 186.5,0 H 950.5 L 842.3,321.2 C 828.1,310.7 812.8,301.7 796.4,294.5 Z M 1062,248.3 V 356 l -142.1,62.2 c -7.2,-16.3 -16,-31.7 -26.4,-45.8 z m 0,225.6 v 80.5 L 938.5,540.6 c 0.9,-8.7 1.4,-17.5 1.4,-26.5 0,-9 -0.4,-17.8 -1.3,-26.5 z m 0,198.4 V 780 L 893.3,656 c 10.4,-14.2 19.4,-29.5 26.6,-45.8 z M 340,780 V 672.3 l 141.7,-62.2 c 7.1,16.3 16.2,31.7 26.7,45.8 z m 0,-225.6 v -80.5 l 123.1,13.8 c -1,8.7 -1.6,17.5 -1.6,26.5 0,8.9 0.7,17.8 1.7,26.5 z M 340,356 V 248.3 l 168.2,124 c -10.4,14.2 -19.2,29.5 -26.3,45.8 z M 796.5,733.4 890.6,948.3 936,922 981.5,895.8 842.3,706.8 c -14.1,10.5 -29.5,19.4 -45.8,26.6 z M 674,751.9 648,985 H 700.5 753 L 727,751.9 c -8.7,0.9 -17.5,1.5 -26.5,1.5 -9,0 -17.8,-0.6 -26.5,-1.5 z m -115.3,-45.1 -139,188.9 45.4,26.2 45.4,26.2 94.1,-214.9 c -16.4,-7 -31.8,-15.9 -45.9,-26.4 z"
         id="path16" />
      <path
         style="clip-rule:evenodd;fill:#333333;fill-rule:evenodd"
         inkscape:connector-curvature="0"
         d="m 753.1,280.5 19.7,-30.2 -28.5,5.9 55.2,-71.6 -19.7,46.4 27.7,-3 -29.5,59.6 c -8.2,-2.8 -16.5,-5.2 -24.9,-7.1 z m 109.8,57.6 32.2,-16.2 -27.6,-9.2 83.6,-34.4 -40.3,30.3 25.5,11.2 -55.3,36.9 c -5.8,-6.6 -11.8,-12.8 -18.1,-18.6 z m 66.3,104.8 36,2 -19.3,-21.8 89.6,12.1 -50.1,6 16.4,22.4 -66.3,4.3 c -1.7,-8.4 -3.8,-16.8 -6.3,-25 z m 5,123.9 30.2,19.8 -5.9,-28.5 71.6,55.3 -46.4,-19.8 3,27.7 -59.6,-29.4 c 2.8,-8.5 5.2,-16.8 7.1,-25.1 z m -462.4,18.7 -36,-2.1 19.3,21.8 -89.6,-12.1 50,-6 -16.4,-22.4 66.3,-4.3 c 1.8,8.5 3.9,16.8 6.4,25.1 z m -5,-123.9 -30.1,-19.8 5.8,28.5 -71.5,-55.2 46.4,19.8 -3,-27.7 59.6,29.4 c -2.9,8.3 -5.3,16.6 -7.2,25 z m 57.6,-109.8 -16.2,-32.2 -9.2,27.6 -34.3,-83.6 30.2,40.3 11.2,-25.5 36.9,55.3 c -6.5,5.8 -12.8,11.8 -18.6,18.1 z m 104.8,-66.3 2,-36 -21.7,19.4 12,-89.6 6,50.1 22.5,-16.4 4.3,66.3 c -8.5,1.6 -16.9,3.7 -25.1,6.2 z"
         id="path18" />
    </g>
    <g
       transform="matrix(0.27753113,0,0,0.28021393,-88.19925,-43.197893)"
       id="g34">
      <g
         id="g26">
        <polygon
           style="clip-rule:evenodd;fill:#333333;fill-rule:evenodd"
           points="1062,875.4 701,514.2 340,875.4 340,1201 1062,1201 "
           id="polygon22" />
        <polygon
           style="clip-rule:evenodd;fill:#78bc25;fill-rule:evenodd"
           points="1001,929.9 700.5,629.1 400,929.9 400,1201 1001,1201 "
           id="polygon24" />
      </g>
      <g
         id="g32">
        <path
           style="clip-rule:evenodd;fill:#ffff99;fill-rule:evenodd"
           inkscape:connector-curvature="0"
           d="m 369.5,1180.9 -9.1,2.1 4.2,-21.9 -13.2,5.4 18.1,-28.3 18.1,28.3 -13.2,-5.4 4.2,21.9 z m 169,-447.3 -7.9,-4.9 18.4,-12.5 -13.1,-5.6 32.8,-7.2 -7.2,32.8 -5.5,-13.1 -12.5,18.4 z m -49.8,49.9 -7.9,-4.9 18.4,-12.5 -13.1,-5.6 32.9,-7.2 -7.2,32.8 -5.6,-13.1 -12.5,18.4 z m -49.8,49.8 -7.9,-4.9 18.4,-12.5 -13.1,-5.6 32.8,-7.2 -7.2,32.9 -5.6,-13.1 -12.5,18.4 z m -49.9,49.8 -7.9,-4.9 18.4,-12.5 -13.1,-5.6 32.8,-7.2 -7.2,32.8 -5.6,-13.1 -12.5,18.4 z m -19.5,75.6 -9.1,2.1 4.2,-21.9 -13.2,5.4 18.1,-28.3 18.1,28.3 -13.2,-5.4 4.2,21.9 z m 0,74.1 -9.1,2.1 4.2,-21.9 -13.2,5.4 18.1,-28.3 18.1,28.3 -13.2,-5.4 4.2,21.9 z m 0,74 -9.1,2.2 4.2,-21.9 -13.2,5.3 18.1,-28.3 18.1,28.3 -13.2,-5.3 4.2,21.9 z"
           id="path28" />
        <path
           style="clip-rule:evenodd;fill:#ffff99;fill-rule:evenodd"
           inkscape:connector-curvature="0"
           d="m 1031.5,1180.9 9.1,2.1 -4.2,-21.9 13.2,5.4 -18.1,-28.3 -18.1,28.3 13.2,-5.4 -4.2,21.9 z m -169,-447.3 7.9,-4.9 -18.4,-12.4 13.1,-5.6 -32.8,-7.2 7.2,32.8 5.6,-13.1 12.5,18.4 z m 49.8,49.9 7.9,-4.9 -18.4,-12.5 13.1,-5.6 -32.8,-7.2 7.2,32.8 5.5,-13.1 12.5,18.4 z m 49.8,49.8 7.9,-4.9 -18.4,-12.5 13.1,-5.6 -32.9,-7.2 7.2,32.9 5.6,-13.1 12.5,18.4 z m 49.9,49.8 7.9,-4.9 -18.4,-12.5 13.1,-5.6 -32.8,-7.2 7.2,32.8 5.6,-13.1 12.5,18.4 z m 19.5,75.6 9.1,2.1 -4.2,-21.9 13.2,5.4 -18.1,-28.3 -18.1,28.3 13.2,-5.4 -4.2,21.9 z m 0,74.1 9.1,2.1 -4.2,-21.9 13.2,5.4 -18.1,-28.3 -18.1,28.3 13.2,-5.4 -4.2,21.9 z m 0,74 9.1,2.2 -4.2,-21.9 13.2,5.3 -18.1,-28.3 -18.1,28.3 13.2,-5.3 -4.2,21.9 z"
           id="path30" />
      </g>
    </g>
    <g
       transform="matrix(0.27753113,0,0,0.28021393,-88.19925,-43.197893)"
       id="g40">
      <path
         style="clip-rule:evenodd;fill:#333333;fill-rule:evenodd"
         inkscape:connector-curvature="0"
         d="m 700,738.9 c 123.8,0 224.7,-101 224.7,-224.7 0,-123.8 -100.9,-224.7 -224.7,-224.7 -123.8,0 -224.7,101 -224.7,224.7 0,123.7 100.9,224.7 224.7,224.7 z"
         id="path36" />
      <path
         style="clip-rule:evenodd;fill:#78bc25;fill-rule:evenodd"
         inkscape:connector-curvature="0"
         d="m 700.5,302.1 c 117.1,0 212.1,95 212.1,212.1 0,117.1 -94.9,212.1 -212.1,212.1 -117.2,0 -212.1,-95 -212.1,-212.1 0,-117.1 95,-212.1 212.1,-212.1 z m 0,16.2 c 108.2,0 195.9,87.7 195.9,195.9 0,108.2 -87.7,195.9 -195.9,195.9 -108.2,0 -195.9,-87.7 -195.9,-195.9 0,-108.2 87.7,-195.9 195.9,-195.9 z"
         id="path38" />
    </g>
    <g
       transform="matrix(0.27753113,0,0,0.28021393,-88.19925,-43.197893)"
       id="g102">
      <polygon
         style="clip-rule:evenodd;fill:#333333;fill-rule:evenodd"
         points="701,1121.1 983,1180.7 983,954.6 701,1014.3 419,954.6 419,1180.7 "
         id="polygon42" />
      <g
         id="g100">
        <polygon
           style="clip-rule:evenodd;fill:#ffff99;fill-rule:evenodd"
           points="435,977.6 435,1007 601,1007 "
           id="polygon92" />
        <polygon
           style="clip-rule:evenodd;fill:#ffff99;fill-rule:evenodd"
           points="965,977.6 965,1007 799.9,1007 "
           id="polygon94" />
        <polygon
           style="clip-rule:evenodd;fill:#ffff99;fill-rule:evenodd"
           points="965,1156.3 965,1127 799.9,1127 "
           id="polygon96" />
        <polygon
           style="clip-rule:evenodd;fill:#ffff99;fill-rule:evenodd"
           points="435,1156.3 435,1127 601,1127 "
           id="polygon98" />
      </g>
    </g>
    <g
       transform="matrix(0.27753113,0,0,0.28021393,-88.19925,-43.197893)"
       id="g110">
      <path
         style="clip-rule:evenodd;fill:#333333;fill-rule:evenodd"
         inkscape:connector-curvature="0"
         d="m 799,1201 c -6.1,0 -12.2,-93.7 -18.3,-140.4 -2.5,-31.8 -5,-63.6 -7.6,-95.5 52.7,-46.5 83,-51.8 106.2,-128.3 -17.4,-86.1 -14,-111.4 -55.5,-125.1 -1.1,-51.3 -15.2,-91.8 -74.4,-49.6 -27.8,-16.5 -65.8,-6.5 -81.4,22.1 -20.2,-18.4 -57.7,2 -70.1,23.7 -37.4,21.2 -32.4,18.3 -55,55 1.6,10.4 3.3,20.9 4.9,31.3 -2.7,9.3 -5.1,18.7 -7.7,28 31.6,112.7 38,94.5 78,172.5 0,9.5 0,19 0,28.5 -4,61.6 -3.8,117.8 -15.8,177.8 65.5,0 131.1,0 196.7,0 z"
         id="path104" />
      <path
         style="clip-rule:evenodd;fill:#78bc25;fill-rule:evenodd"
         inkscape:connector-curvature="0"
         d="m 850.2,741.8 c -4.3,-11.5 -19.1,-19.4 -34.3,-21.6 -16.2,-0.2 -32,4.7 -47.4,12.4 5.7,10 6.3,19.1 0.5,26.9 2.1,-9.7 1.4,-18.5 -7.2,-25 -17.5,1.7 -35,3.5 -52.1,12.6 3.6,18.2 16.4,24.3 35.1,22.6 -7.7,1.7 -15.4,3.3 -23.7,0 3.1,13.9 13.3,22 30.2,24.8 19.2,-0.9 35.8,-9.3 46.4,-34 2.6,9.6 0.7,19.6 -7.5,30.2 16.9,-5.5 28.1,-17.1 32.9,-35.6 2.1,13.8 0,26.3 -10.8,36.1 14.3,-2.9 26.1,-11.5 34,-29.1 -4.7,16.9 -11.5,30.6 -21.6,39.4 7.9,2.8 16,3.1 24.3,-0.5 -7.6,8.8 -14.9,12.4 -22.1,11.9 7.8,8.3 16.5,13.6 26.4,15.1 -5.7,2 -11.1,2 -16.2,0 6.4,9.3 14.5,15.8 24.8,18.3 -5.3,23.6 -16.3,39.6 -30.2,51.8 20.4,-11.4 33.5,-29.7 38.8,-55.5 -3.2,-36.1 -11.9,-66.8 -20.3,-100.8 z M 608.6,1201 c 11.4,0 16.9,-112.4 18.9,-171.5 0.8,47.4 0.8,94.5 -2.7,140.1 4.5,-15.4 7,-33 7.5,-52.8 3.3,28.5 2.1,56.2 0,84.2 -7.9,0 -15.8,0 -23.7,0 z m 70.1,-219.8 c 10.4,42.6 12.7,81.6 14,120.2 0,-33.9 0.6,-67.6 -3.9,-103.4 3.5,3.3 7.1,6.6 10.6,9.9 1,15.2 2,30.3 3,45.5 0.9,-12.4 1.9,-24.7 2.8,-37.1 2,33.1 3.9,66.1 5.9,99.1 2.1,-39 6.8,-45.6 23.7,-78.2 9.3,15 15.8,36.4 20.5,61.5 -2.1,25.9 -6.5,47.8 -12.9,66.1 7,-14.5 13.5,-30 17.3,-49.9 -0.7,26.4 -5.5,47.3 -11.3,66.8 7,-15.5 13.5,-32 18.3,-52.2 0.9,28.2 -4.5,50.5 -11.9,71.5 11.7,0 23.3,0 35,0 -2.9,-94 -26.4,-140.3 -30.7,-200.4 3,16.4 6.9,30.6 11.3,43.7 -2.6,-24.7 -5.3,-49.5 -4.3,-73.9 -18.1,4.9 -35.3,11.3 -51.2,19.9 9.8,-7 20.5,-13.5 35,-18.3 -16.3,4 -32.2,11.1 -49.1,11.9 7.1,-1.7 12.9,-4.2 16.7,-8.1 -11.6,4.4 -24.3,6.8 -38.8,5.4 z m 52.9,-28.4 c 12.4,-12.5 22.4,-28.7 25.1,-46 0.2,9.2 -0.8,15.7 -4.3,24.2 12,-9.9 17.6,-24.8 20.2,-40.2 3.3,10.3 2.7,19.5 0.5,28.3 5.6,-10.7 8.7,-22.4 7.8,-35.6 5.8,9.1 7.9,18.2 8.4,27.2 2.7,-10.2 3.7,-21.2 0.2,-33.9 7.5,9.1 9.9,19.3 10.3,29.9 6.5,-13.8 10.1,-29.8 10.5,-48.3 6,39.2 -7.9,70.7 -55.8,88.7 23.3,-2.7 42.9,-12.6 60.1,-27.5 -23.1,25.1 -51,35.7 -83,33.2 z m -31.7,-73.4 c -9.4,-8 -20.6,-12 -32.9,-13.2 11.4,5.5 21.5,13.5 29.9,24.8 -5.8,-4.3 -12.6,-6.1 -20.2,-5.4 10.5,4.5 18.8,13.3 25.4,25.3 -5.1,-1.5 -10.4,-2.3 -15.6,-2.7 7.1,4.8 13.6,10.4 19.1,18.1 -5.7,-1.7 -11.4,-2.8 -17.3,-2.4 8.9,5.9 17.4,13.6 25.3,25.1 -3.1,-0.7 -7.2,-0.7 -12.1,0 5.2,1.1 10,3.4 11.9,4.9 -15.4,9.2 -33.2,11.9 -53.1,9.4 22,4.9 42.7,2.5 62.3,-6.8 -1.4,-26.7 -3.1,-53.3 -22.7,-77.1 z m -137.5,-6.5 c 13.2,20.3 28.5,34.5 45.3,44.8 -7.3,-1.6 -14.9,-4.3 -23.7,-11.3 13.9,26.7 31,43.8 50.7,53.9 -10.6,-1.2 -21.2,-5.5 -31.8,-14.6 9.3,20 19.9,34.5 30.7,48 -31.7,-31.3 -55.4,-71.6 -71.2,-120.8 z m 68.6,-86 C 625.2,720.2 582.5,707 553.4,761 c 13.2,-10.1 27.5,-13.9 42.7,-12.4 -11.8,4.2 -23,11.4 -33.4,21.8 14.4,-8 29.7,-12.2 46.5,-11 -12.8,3.1 -23.9,10.3 -33.9,20.3 11.5,-5.9 24,-9.3 38.3,-8.7 -10.5,5.5 -19.3,13.7 -27,23.7 6.4,-2.6 12.8,-4.7 19.4,-6.1 -6.9,6 -12.7,12.9 -16.7,21.5 2.3,-1.3 5,-2.1 8.1,-2.4 -3.3,3.4 -5.4,7.6 -7,12.1 0.2,10.3 5.8,22.2 12.9,26.9 13.4,1.4 25.8,-6.1 31.9,-11.9 0.8,-12.1 -2.5,-28.5 -4.2,-47.9 z m 52,-43.7 c 0.9,-61.6 -46.4,-71 -77.6,-25.9 13.2,-10.1 27.4,-13.9 42.7,-12.4 -11.8,4.2 -23,11.4 -33.4,21.8 14.3,-8 29.7,-12.2 46.5,-11 -12.8,3.1 -23.9,10.3 -33.9,20.3 11.5,-5.9 24.1,-9.3 38.3,-8.7 -10.5,5.5 -19.3,13.7 -27,23.7 6.4,-2.6 12.8,-4.7 19.4,-6.1 -6.9,5.9 -12.7,12.9 -16.7,21.5 2.3,-1.3 5,-2.1 8.1,-2.4 -3.3,3.5 -5.4,7.6 -7,12.1 -0.2,28.3 7.4,40.6 17.3,48 5.4,0.4 15.1,1.7 15,-3.8 -3.1,0 -11.5,0.3 -15.6,-2.6 -8,-15.4 -4.4,-35.8 5.2,-41.9 -2.9,-1.1 -5.5,-2.9 -5.9,-8.4 5.6,-9.6 13.1,-18.1 24.6,-24.2 z m 71.2,-23.6 c 0.9,-64.6 -44.9,-75.3 -77.6,-28 13.8,-10.6 25,-13.8 40.9,-12.1 -12.4,4.4 -19.5,9.6 -30.4,20.5 15.1,-8.4 26.6,-10.5 44.2,-9.2 -13.4,3.3 -25.1,10.8 -35.6,21.3 12.1,-6.2 25.2,-9.8 40.2,-9.1 -11,5.7 -20.2,14.3 -28.3,24.8 15,-6.3 30.5,-9.6 46.6,-8.2 z m 0.2,-51.4 c 51.4,-35.7 63,8.9 62.2,40.7 -11.8,-0.9 -23.9,-0.1 -36.4,3 3.6,-9 7.7,-14.2 12.1,-16.7 -3.1,0.7 -6.8,1.9 -11.3,4.1 2,-11.3 6.6,-20.8 15.4,-27.8 -8.6,1.2 -15.9,4.2 -21.6,9.7 3.8,-7.6 8.8,-14.2 15.1,-19.9 -12.4,-1.9 -24.1,1.5 -35.5,6.9 z"
         id="path106" />
      <path
         style="clip-rule:evenodd;fill:#ffff99;fill-rule:evenodd"
         inkscape:connector-curvature="0"
         d="m 850.2,741.8 c -4.3,-11.5 -19.1,-19.4 -34.3,-21.6 -16.2,-0.2 -32,4.7 -47.4,12.4 22.9,-6.3 44.3,-11.5 63.6,1.7 17.7,12.1 28.1,58.8 38,104.8 -3.3,-34.5 -11.8,-64.4 -19.9,-97.3 z m -226.9,357.6 c 0.8,29.1 -1.5,62.6 -7,101.6 h -7.7 c 6.9,-33 11.6,-66.9 14.7,-101.6 z M 777.7,1201 c 1.2,-64 -8.6,-106.2 -12.9,-159.4 v 0 c 8.5,43.8 22.8,88.4 25,159.4 z m -14,-179.3 c -0.6,-18.9 0.3,-33.6 2.2,-45.4 v 0 c -0.4,22.5 2.1,45.2 4.5,68 -2.4,-7.2 -4.7,-14.7 -6.7,-22.6 z m -196.2,-134 c 14.3,31.7 30.8,59.8 48.3,86.5 -20,-24.5 -36.1,-53.3 -48.3,-86.5 z m 117.1,-17.5 c 19.5,16.9 31.4,44.1 37.7,79 -1.4,-24.2 -4.5,-48.2 -22.3,-69.8 -4.8,-4.1 -9.9,-7.1 -15.4,-9.2 z m 84.9,-124.3 c -1,-4.2 -3.4,-8 -7.6,-11.2 -14.5,1.4 -28.9,2.9 -43.2,8.5 25.7,-6.5 42.9,-5.8 50.8,2.7 z m 10.3,-90 c 17.3,4.3 31.8,14.6 36.8,45.2 -1,-24.2 -9.7,-51.3 -36.8,-45.2 z m -206.5,79.6 c 35.7,-10.5 49.3,25.8 59.6,69.2 -0.7,-5.6 -1.4,-11.6 -2,-17.8 -4.5,-52.5 -31.9,-71.8 -57.6,-51.4 z m 51.2,-38 c 30.9,-9.7 47,4.8 57.4,28.9 -5.7,-36.4 -32.5,-46.2 -57.4,-28.9 z m 69.5,-25 c 27.8,-11.5 45.7,-0.1 58.2,24.3 C 745,661.7 718.8,653.2 694,672.5 Z"
         id="path108" />
    </g>
  </g>
</svg>
