<?xml version="1.0" encoding="UTF-8" standalone="no"?>
<!-- Generator: Adobe Illustrator 17.0.0, SVG Export Plug-In . SVG Version: 6.00 Build 0)  -->

<svg
   xmlns:dc="http://purl.org/dc/elements/1.1/"
   xmlns:cc="http://creativecommons.org/ns#"
   xmlns:rdf="http://www.w3.org/1999/02/22-rdf-syntax-ns#"
   xmlns:svg="http://www.w3.org/2000/svg"
   xmlns="http://www.w3.org/2000/svg"
   xmlns:sodipodi="http://sodipodi.sourceforge.net/DTD/sodipodi-0.dtd"
   xmlns:inkscape="http://www.inkscape.org/namespaces/inkscape"
   version="1.1"
   id="Layer_1"
   x="0px"
   y="0px"
   width="1400px"
   height="1400px"
   viewBox="0 0 1400 1400"
   enable-background="new 0 0 1400 1400"
   xml:space="preserve"
   sodipodi:docname="upgraded.svg"
   inkscape:version="0.92.3 (2405546, 2018-03-11)"><metadata
   id="metadata137"><rdf:RDF><cc:Work
       rdf:about=""><dc:format>image/svg+xml</dc:format><dc:type
         rdf:resource="http://purl.org/dc/dcmitype/StillImage" /><dc:title /></cc:Work></rdf:RDF></metadata><defs
   id="defs135" /><sodipodi:namedview
   pagecolor="#ffffff"
   bordercolor="#666666"
   borderopacity="1"
   objecttolerance="10"
   gridtolerance="10"
   guidetolerance="10"
   inkscape:pageopacity="0"
   inkscape:pageshadow="2"
   inkscape:window-width="1853"
   inkscape:window-height="1145"
   id="namedview133"
   showgrid="false"
   inkscape:zoom="0.33714286"
   inkscape:cx="544.31437"
   inkscape:cy="855.17886"
   inkscape:window-x="67"
   inkscape:window-y="27"
   inkscape:window-maximized="1"
   inkscape:current-layer="Layer_1" />


<g
   id="g14">
	
	<g
   id="g12">
		<rect
   x="321"
   y="156"
   fill-rule="evenodd"
   clip-rule="evenodd"
   fill="#333333"
   width="759"
   height="1064"
   id="rect8" />
		<rect
   x="340"
   y="174"
   fill-rule="evenodd"
   clip-rule="evenodd"
   fill="#FF6741"
   width="722"
   height="1027"
   id="rect10" />
	</g>
</g>
<g
   id="g20">
	<path
   fill-rule="evenodd"
   clip-rule="evenodd"
   fill="#FFFF99"
   d="M450.6,174h101.3l52.7,120.7c-16.3,7.1-31.7,15.9-45.8,26.4   L450.6,174z M662.7,174h75.7L727,276.1c-8.7-0.9-17.5-1.3-26.5-1.3c-9,0-17.8,0.3-26.5,1.2L662.7,174z M849.2,174h101.3   L842.3,321.2c-14.2-10.5-29.5-19.5-45.9-26.7L849.2,174z M1062,248.3V356l-142.1,62.2c-7.2-16.3-16-31.7-26.4-45.8L1062,248.3z    M1062,473.9v80.5l-123.5-13.8c0.9-8.7,1.4-17.5,1.4-26.5c0-9-0.4-17.8-1.3-26.5L1062,473.9z M1062,672.3V780L893.3,656   c10.4-14.2,19.4-29.5,26.6-45.8L1062,672.3z M340,780V672.3l141.7-62.2c7.1,16.3,16.2,31.7,26.7,45.8L340,780z M340,554.4v-80.5   l123.1,13.8c-1,8.7-1.6,17.5-1.6,26.5c0,8.9,0.7,17.8,1.7,26.5L340,554.4z M340,356V248.3l168.2,124   c-10.4,14.2-19.2,29.5-26.3,45.8L340,356z M796.5,733.4l94.1,214.9L936,922l45.5-26.2L842.3,706.8   C828.2,717.3,812.8,726.2,796.5,733.4L796.5,733.4z M674,751.9L648,985h52.5H753l-26-233.1c-8.7,0.9-17.5,1.5-26.5,1.5   C691.5,753.4,682.7,752.8,674,751.9L674,751.9z M558.7,706.8l-139,188.9l45.4,26.2l45.4,26.2l94.1-214.9   C588.2,726.2,572.8,717.3,558.7,706.8L558.7,706.8z"
   id="path16" />
	<path
   fill-rule="evenodd"
   clip-rule="evenodd"
   fill="#333333"
   d="M753.1,280.5l19.7-30.2l-28.5,5.9l55.2-71.6L779.8,231l27.7-3   L778,287.6C769.8,284.8,761.5,282.4,753.1,280.5L753.1,280.5z M862.9,338.1l32.2-16.2l-27.6-9.2l83.6-34.4l-40.3,30.3l25.5,11.2   l-55.3,36.9C875.2,350.1,869.2,343.9,862.9,338.1L862.9,338.1z M929.2,442.9l36,2l-19.3-21.8l89.6,12.1l-50.1,6l16.4,22.4   l-66.3,4.3C933.8,459.5,931.7,451.1,929.2,442.9L929.2,442.9z M934.2,566.8l30.2,19.8l-5.9-28.5l71.6,55.3l-46.4-19.8l3,27.7   l-59.6-29.4C929.9,583.4,932.3,575.1,934.2,566.8L934.2,566.8z M471.8,585.5l-36-2.1l19.3,21.8l-89.6-12.1l50-6l-16.4-22.4   l66.3-4.3C467.2,568.9,469.3,577.2,471.8,585.5L471.8,585.5z M466.8,461.6l-30.1-19.8l5.8,28.5L371,415.1l46.4,19.8l-3-27.7   l59.6,29.4C471.1,444.9,468.7,453.2,466.8,461.6L466.8,461.6z M524.4,351.8l-16.2-32.2l-9.2,27.6l-34.3-83.6l30.2,40.3l11.2-25.5   l36.9,55.3C536.5,339.5,530.2,345.5,524.4,351.8L524.4,351.8z M629.2,285.5l2-36l-21.7,19.4l12-89.6l6,50.1l22.5-16.4l4.3,66.3   C645.8,280.9,637.4,283,629.2,285.5L629.2,285.5z"
   id="path18" />
</g>
<g
   id="g34">
	<g
   id="g26">
		<polygon
   fill-rule="evenodd"
   clip-rule="evenodd"
   fill="#333333"
   points="701,514.2 340,875.4 340,1201 1062,1201 1062,875.4       "
   id="polygon22" />
		<polygon
   fill-rule="evenodd"
   clip-rule="evenodd"
   fill="#FF6741"
   points="700.5,629.1 400,929.9 400,1201 1001,1201 1001,929.9       "
   id="polygon24" />
	</g>
	<g
   id="g32">
		<path
   fill-rule="evenodd"
   clip-rule="evenodd"
   fill="#FFFF99"
   d="M369.5,1180.9l-9.1,2.1l4.2-21.9l-13.2,5.4l18.1-28.3l18.1,28.3    l-13.2-5.4l4.2,21.9L369.5,1180.9z M538.5,733.6l-7.9-4.9l18.4-12.5l-13.1-5.6l32.8-7.2l-7.2,32.8l-5.5-13.1l-12.5,18.4    L538.5,733.6z M488.7,783.5l-7.9-4.9l18.4-12.5l-13.1-5.6l32.9-7.2l-7.2,32.8l-5.6-13.1l-12.5,18.4L488.7,783.5z M438.9,833.3    l-7.9-4.9l18.4-12.5l-13.1-5.6l32.8-7.2l-7.2,32.9l-5.6-13.1l-12.5,18.4L438.9,833.3z M389,883.1l-7.9-4.9l18.4-12.5l-13.1-5.6    l32.8-7.2l-7.2,32.8l-5.6-13.1l-12.5,18.4L389,883.1z M369.5,958.7l-9.1,2.1l4.2-21.9l-13.2,5.4l18.1-28.3l18.1,28.3l-13.2-5.4    l4.2,21.9L369.5,958.7z M369.5,1032.8l-9.1,2.1l4.2-21.9l-13.2,5.4l18.1-28.3l18.1,28.3l-13.2-5.4l4.2,21.9L369.5,1032.8z     M369.5,1106.8l-9.1,2.2l4.2-21.9l-13.2,5.3l18.1-28.3l18.1,28.3l-13.2-5.3l4.2,21.9L369.5,1106.8z"
   id="path28" />
		<path
   fill-rule="evenodd"
   clip-rule="evenodd"
   fill="#FFFF99"
   d="M1031.5,1180.9l9.1,2.1l-4.2-21.9l13.2,5.4l-18.1-28.3    l-18.1,28.3l13.2-5.4l-4.2,21.9L1031.5,1180.9z M862.5,733.6l7.9-4.9L852,716.3l13.1-5.6l-32.8-7.2l7.2,32.8l5.6-13.1l12.5,18.4    L862.5,733.6z M912.3,783.5l7.9-4.9l-18.4-12.5l13.1-5.6l-32.8-7.2l7.2,32.8l5.5-13.1l12.5,18.4L912.3,783.5z M962.1,833.3    l7.9-4.9l-18.4-12.5l13.1-5.6l-32.9-7.2l7.2,32.9l5.6-13.1l12.5,18.4L962.1,833.3z M1012,883.1l7.9-4.9l-18.4-12.5l13.1-5.6    l-32.8-7.2l7.2,32.8l5.6-13.1l12.5,18.4L1012,883.1z M1031.5,958.7l9.1,2.1l-4.2-21.9l13.2,5.4l-18.1-28.3l-18.1,28.3l13.2-5.4    l-4.2,21.9L1031.5,958.7z M1031.5,1032.8l9.1,2.1l-4.2-21.9l13.2,5.4l-18.1-28.3l-18.1,28.3l13.2-5.4l-4.2,21.9L1031.5,1032.8z     M1031.5,1106.8l9.1,2.2l-4.2-21.9l13.2,5.3l-18.1-28.3l-18.1,28.3l13.2-5.3l-4.2,21.9L1031.5,1106.8z"
   id="path30" />
	</g>
</g>
<g
   id="g40">
	<path
   fill-rule="evenodd"
   clip-rule="evenodd"
   fill="#333333"
   d="M700,738.9c123.8,0,224.7-101,224.7-224.7   c0-123.8-100.9-224.7-224.7-224.7s-224.7,101-224.7,224.7C475.3,637.9,576.2,738.9,700,738.9L700,738.9z"
   id="path36" />
	<path
   fill-rule="evenodd"
   clip-rule="evenodd"
   fill="#FF6741"
   d="M700.5,302.1c117.1,0,212.1,95,212.1,212.1   c0,117.1-94.9,212.1-212.1,212.1s-212.1-95-212.1-212.1C488.4,397.1,583.4,302.1,700.5,302.1L700.5,302.1z M700.5,318.3   c108.2,0,195.9,87.7,195.9,195.9c0,108.2-87.7,195.9-195.9,195.9s-195.9-87.7-195.9-195.9C504.6,406,592.3,318.3,700.5,318.3   L700.5,318.3z"
   id="path38" />
</g>
<g
   id="g102">
	<polygon
   fill-rule="evenodd"
   clip-rule="evenodd"
   fill="#333333"
   points="701,1014.3 419,954.6 419,1180.7 701,1121.1 983,1180.7    983,954.6  "
   id="polygon42" />
	
	
	<g
   id="g100">
		<polygon
   fill-rule="evenodd"
   clip-rule="evenodd"
   fill="#FFFF99"
   points="435,977.6 435,1007 601,1007   "
   id="polygon92" />
		<polygon
   fill-rule="evenodd"
   clip-rule="evenodd"
   fill="#FFFF99"
   points="965,977.6 965,1007 799.9,1007   "
   id="polygon94" />
		<polygon
   fill-rule="evenodd"
   clip-rule="evenodd"
   fill="#FFFF99"
   points="965,1156.3 965,1127 799.9,1127   "
   id="polygon96" />
		<polygon
   fill-rule="evenodd"
   clip-rule="evenodd"
   fill="#FFFF99"
   points="435,1156.3 435,1127 601,1127   "
   id="polygon98" />
	</g>
</g>
<g
   id="g110">
	<path
   fill-rule="evenodd"
   clip-rule="evenodd"
   fill="#333333"
   d="M799,1201c-6.1,0-12.2-93.7-18.3-140.4c-2.5-31.8-5-63.6-7.6-95.5   c52.7-46.5,83-51.8,106.2-128.3c-17.4-86.1-14-111.4-55.5-125.1c-1.1-51.3-15.2-91.8-74.4-49.6c-27.8-16.5-65.8-6.5-81.4,22.1   c-20.2-18.4-57.7,2-70.1,23.7c-37.4,21.2-32.4,18.3-55,55c1.6,10.4,3.3,20.9,4.9,31.3c-2.7,9.3-5.1,18.7-7.7,28   c31.6,112.7,38,94.5,78,172.5c0,9.5,0,19,0,28.5c-4,61.6-3.8,117.8-15.8,177.8C667.8,1201,733.4,1201,799,1201L799,1201z"
   id="path104" />
	<path
   fill-rule="evenodd"
   clip-rule="evenodd"
   fill="#FF6741"
   d="M850.2,741.8c-4.3-11.5-19.1-19.4-34.3-21.6   c-16.2-0.2-32,4.7-47.4,12.4c5.7,10,6.3,19.1,0.5,26.9c2.1-9.7,1.4-18.5-7.2-25c-17.5,1.7-35,3.5-52.1,12.6   c3.6,18.2,16.4,24.3,35.1,22.6c-7.7,1.7-15.4,3.3-23.7,0c3.1,13.9,13.3,22,30.2,24.8c19.2-0.9,35.8-9.3,46.4-34   c2.6,9.6,0.7,19.6-7.5,30.2c16.9-5.5,28.1-17.1,32.9-35.6c2.1,13.8,0,26.3-10.8,36.1c14.3-2.9,26.1-11.5,34-29.1   c-4.7,16.9-11.5,30.6-21.6,39.4c7.9,2.8,16,3.1,24.3-0.5c-7.6,8.8-14.9,12.4-22.1,11.9c7.8,8.3,16.5,13.6,26.4,15.1   c-5.7,2-11.1,2-16.2,0c6.4,9.3,14.5,15.8,24.8,18.3c-5.3,23.6-16.3,39.6-30.2,51.8c20.4-11.4,33.5-29.7,38.8-55.5   C867.3,806.5,858.6,775.8,850.2,741.8L850.2,741.8z M608.6,1201c11.4,0,16.9-112.4,18.9-171.5c0.8,47.4,0.8,94.5-2.7,140.1   c4.5-15.4,7-33,7.5-52.8c3.3,28.5,2.1,56.2,0,84.2C624.4,1201,616.5,1201,608.6,1201L608.6,1201z M678.7,981.2   c10.4,42.6,12.7,81.6,14,120.2c0-33.9,0.6-67.6-3.9-103.4c3.5,3.3,7.1,6.6,10.6,9.9c1,15.2,2,30.3,3,45.5   c0.9-12.4,1.9-24.7,2.8-37.1c2,33.1,3.9,66.1,5.9,99.1c2.1-39,6.8-45.6,23.7-78.2c9.3,15,15.8,36.4,20.5,61.5   c-2.1,25.9-6.5,47.8-12.9,66.1c7-14.5,13.5-30,17.3-49.9c-0.7,26.4-5.5,47.3-11.3,66.8c7-15.5,13.5-32,18.3-52.2   c0.9,28.2-4.5,50.5-11.9,71.5c11.7,0,23.3,0,35,0c-2.9-94-26.4-140.3-30.7-200.4c3,16.4,6.9,30.6,11.3,43.7   c-2.6-24.7-5.3-49.5-4.3-73.9c-18.1,4.9-35.3,11.3-51.2,19.9c9.8-7,20.5-13.5,35-18.3c-16.3,4-32.2,11.1-49.1,11.9   c7.1-1.7,12.9-4.2,16.7-8.1C705.9,980.2,693.2,982.6,678.7,981.2L678.7,981.2z M731.6,952.8c12.4-12.5,22.4-28.7,25.1-46   c0.2,9.2-0.8,15.7-4.3,24.2c12-9.9,17.6-24.8,20.2-40.2c3.3,10.3,2.7,19.5,0.5,28.3c5.6-10.7,8.7-22.4,7.8-35.6   c5.8,9.1,7.9,18.2,8.4,27.2c2.7-10.2,3.7-21.2,0.2-33.9c7.5,9.1,9.9,19.3,10.3,29.9c6.5-13.8,10.1-29.8,10.5-48.3   c6,39.2-7.9,70.7-55.8,88.7c23.3-2.7,42.9-12.6,60.1-27.5C791.5,944.7,763.6,955.3,731.6,952.8L731.6,952.8z M699.9,879.4   c-9.4-8-20.6-12-32.9-13.2c11.4,5.5,21.5,13.5,29.9,24.8c-5.8-4.3-12.6-6.1-20.2-5.4c10.5,4.5,18.8,13.3,25.4,25.3   c-5.1-1.5-10.4-2.3-15.6-2.7c7.1,4.8,13.6,10.4,19.1,18.1c-5.7-1.7-11.4-2.8-17.3-2.4c8.9,5.9,17.4,13.6,25.3,25.1   c-3.1-0.7-7.2-0.7-12.1,0c5.2,1.1,10,3.4,11.9,4.9c-15.4,9.2-33.2,11.9-53.1,9.4c22,4.9,42.7,2.5,62.3-6.8   C721.2,929.8,719.5,903.2,699.9,879.4L699.9,879.4z M562.4,872.9c13.2,20.3,28.5,34.5,45.3,44.8c-7.3-1.6-14.9-4.3-23.7-11.3   c13.9,26.7,31,43.8,50.7,53.9c-10.6-1.2-21.2-5.5-31.8-14.6c9.3,20,19.9,34.5,30.7,48C601.9,962.4,578.2,922.1,562.4,872.9   L562.4,872.9z M631,786.9c-5.8-66.7-48.5-79.9-77.6-25.9c13.2-10.1,27.5-13.9,42.7-12.4c-11.8,4.2-23,11.4-33.4,21.8   c14.4-8,29.7-12.2,46.5-11c-12.8,3.1-23.9,10.3-33.9,20.3c11.5-5.9,24-9.3,38.3-8.7c-10.5,5.5-19.3,13.7-27,23.7   c6.4-2.6,12.8-4.7,19.4-6.1c-6.9,6-12.7,12.9-16.7,21.5c2.3-1.3,5-2.1,8.1-2.4c-3.3,3.4-5.4,7.6-7,12.1   c0.2,10.3,5.8,22.2,12.9,26.9c13.4,1.4,25.8-6.1,31.9-11.9C636,822.7,632.7,806.3,631,786.9L631,786.9z M683,743.2   c0.9-61.6-46.4-71-77.6-25.9c13.2-10.1,27.4-13.9,42.7-12.4c-11.8,4.2-23,11.4-33.4,21.8c14.3-8,29.7-12.2,46.5-11   c-12.8,3.1-23.9,10.3-33.9,20.3c11.5-5.9,24.1-9.3,38.3-8.7c-10.5,5.5-19.3,13.7-27,23.7c6.4-2.6,12.8-4.7,19.4-6.1   c-6.9,5.9-12.7,12.9-16.7,21.5c2.3-1.3,5-2.1,8.1-2.4c-3.3,3.5-5.4,7.6-7,12.1c-0.2,28.3,7.4,40.6,17.3,48c5.4,0.4,15.1,1.7,15-3.8   c-3.1,0-11.5,0.3-15.6-2.6c-8-15.4-4.4-35.8,5.2-41.9c-2.9-1.1-5.5-2.9-5.9-8.4C664,757.8,671.5,749.3,683,743.2L683,743.2z    M754.2,719.6c0.9-64.6-44.9-75.3-77.6-28c13.8-10.6,25-13.8,40.9-12.1c-12.4,4.4-19.5,9.6-30.4,20.5c15.1-8.4,26.6-10.5,44.2-9.2   c-13.4,3.3-25.1,10.8-35.6,21.3c12.1-6.2,25.2-9.8,40.2-9.1c-11,5.7-20.2,14.3-28.3,24.8C722.6,721.5,738.1,718.2,754.2,719.6   L754.2,719.6z M754.4,668.2c51.4-35.7,63,8.9,62.2,40.7c-11.8-0.9-23.9-0.1-36.4,3c3.6-9,7.7-14.2,12.1-16.7   c-3.1,0.7-6.8,1.9-11.3,4.1c2-11.3,6.6-20.8,15.4-27.8c-8.6,1.2-15.9,4.2-21.6,9.7c3.8-7.6,8.8-14.2,15.1-19.9   C777.5,659.4,765.8,662.8,754.4,668.2L754.4,668.2z"
   id="path106" />
	<path
   fill-rule="evenodd"
   clip-rule="evenodd"
   fill="#FFFF99"
   d="M850.2,741.8c-4.3-11.5-19.1-19.4-34.3-21.6   c-16.2-0.2-32,4.7-47.4,12.4c22.9-6.3,44.3-11.5,63.6,1.7c17.7,12.1,28.1,58.8,38,104.8C866.8,804.6,858.3,774.7,850.2,741.8   L850.2,741.8z M623.3,1099.4c0.8,29.1-1.5,62.6-7,101.6h-7.7C615.5,1168,620.2,1134.1,623.3,1099.4L623.3,1099.4z M777.7,1201   c1.2-64-8.6-106.2-12.9-159.4l0,0c8.5,43.8,22.8,88.4,25,159.4H777.7z M763.7,1021.7c-0.6-18.9,0.3-33.6,2.2-45.4l0,0   c-0.4,22.5,2.1,45.2,4.5,68C768,1037.1,765.7,1029.6,763.7,1021.7L763.7,1021.7z M567.5,887.7c14.3,31.7,30.8,59.8,48.3,86.5   C595.8,949.7,579.7,920.9,567.5,887.7L567.5,887.7z M684.6,870.2c19.5,16.9,31.4,44.1,37.7,79c-1.4-24.2-4.5-48.2-22.3-69.8   C695.2,875.3,690.1,872.3,684.6,870.2L684.6,870.2z M769.5,745.9c-1-4.2-3.4-8-7.6-11.2c-14.5,1.4-28.9,2.9-43.2,8.5   C744.4,736.7,761.6,737.4,769.5,745.9L769.5,745.9z M779.8,655.9c17.3,4.3,31.8,14.6,36.8,45.2   C815.6,676.9,806.9,649.8,779.8,655.9L779.8,655.9z M573.3,735.5c35.7-10.5,49.3,25.8,59.6,69.2c-0.7-5.6-1.4-11.6-2-17.8   C626.4,734.4,599,715.1,573.3,735.5L573.3,735.5z M624.5,697.5c30.9-9.7,47,4.8,57.4,28.9C676.2,690,649.4,680.2,624.5,697.5   L624.5,697.5z M694,672.5c27.8-11.5,45.7-0.1,58.2,24.3C745,661.7,718.8,653.2,694,672.5L694,672.5z"
   id="path108" />
</g>

</svg>